<svg width="802" height="952" viewBox="0 0 802 952" fill="none" xmlns="http://www.w3.org/2000/svg">
<g clip-path="url(#clip0_416_504)">
<path d="M24.6995 824.923L67.8713 506.541L322.012 703.12L24.6995 824.923Z" stroke="#968D77" stroke-width="4"/>
<path d="M614.221 341.279L622.188 199.247" stroke="#FED385" stroke-width="2.74724" stroke-miterlimit="10" stroke-linecap="round"/>
<path d="M614.221 341.279L710.374 213.807" stroke="#FED385" stroke-width="2.74724" stroke-miterlimit="10" stroke-linecap="round"/>
<path d="M614.221 341.279L716.418 118.752" stroke="#FED385" stroke-width="2.74724" stroke-miterlimit="10" stroke-linecap="round"/>
<path d="M779.03 96.9905C789.507 68.1884 779.805 38.2206 757.359 30.0554C734.914 21.8903 708.224 38.6199 697.747 67.422C687.269 96.2241 696.972 126.192 719.417 134.357C741.863 142.522 768.552 125.793 779.03 96.9905Z" fill="#FD8369"/>
<path d="M671.648 159.392C673.78 128.818 656.194 102.685 632.367 101.024C608.54 99.3616 587.496 122.8 585.363 153.374C583.231 183.948 600.817 210.081 624.644 211.743C648.471 213.405 669.515 189.967 671.648 159.392Z" fill="#D37C59"/>
<path d="M785.072 184.037C799.944 153.477 791.097 118.531 765.312 105.983C739.527 93.4344 706.568 108.036 691.696 138.596C676.824 169.156 685.671 204.102 711.456 216.65C737.241 229.198 770.2 214.597 785.072 184.037Z" fill="#74D5DE"/>
<path d="M700.896 70.5312C705.293 41.6232 689.451 15.2363 665.511 11.5943C641.571 7.95239 618.599 28.4345 614.201 57.3425C609.803 86.2505 625.646 112.637 649.586 116.279C673.526 119.921 696.498 99.4392 700.896 70.5312Z" fill="#74D5DE"/>
<path d="M714.265 146.748C722.498 119.615 712.85 92.6669 692.716 86.5571C672.581 80.4474 649.584 97.49 641.351 124.623C633.117 151.756 642.766 178.704 662.9 184.814C683.035 190.924 706.032 173.881 714.265 146.748Z" fill="#FED385"/>
<path d="M624.561 210.082L629.506 221.697C629.65 222.038 629.702 222.411 629.657 222.778C629.611 223.146 629.471 223.495 629.248 223.791C629.026 224.086 628.729 224.319 628.389 224.464C628.049 224.61 627.676 224.664 627.308 224.62L614.787 223.076C614.418 223.031 614.068 222.89 613.772 222.667C613.475 222.444 613.243 222.147 613.098 221.805C612.953 221.464 612.901 221.09 612.946 220.722C612.992 220.353 613.134 220.004 613.358 219.708L620.957 209.637C621.181 209.346 621.476 209.119 621.815 208.978C622.153 208.837 622.522 208.786 622.886 208.831C623.25 208.876 623.596 209.015 623.889 209.234C624.183 209.454 624.415 209.746 624.561 210.082Z" fill="#D37C59"/>
<path d="M614.221 341.279L596.089 137.434" stroke="#FED385" stroke-width="2.74724" stroke-miterlimit="10" stroke-linecap="round"/>
<path d="M614.221 341.279L662.572 179.741" stroke="#FED385" stroke-width="2.74724" stroke-miterlimit="10" stroke-linecap="round"/>
<path d="M664.363 179.89L667.242 192.181C667.326 192.541 667.313 192.918 667.205 193.272C667.097 193.626 666.898 193.946 666.627 194.199C666.357 194.451 666.024 194.629 665.663 194.712C665.303 194.796 664.926 194.783 664.572 194.675L652.484 191.01C652.129 190.903 651.809 190.704 651.556 190.434C651.303 190.163 651.125 189.831 651.041 189.47C650.957 189.109 650.969 188.732 651.077 188.378C651.185 188.023 651.384 187.703 651.655 187.45L660.863 178.829C661.134 178.575 661.466 178.397 661.827 178.312C662.188 178.228 662.565 178.24 662.92 178.347C663.275 178.455 663.595 178.654 663.848 178.925C664.102 179.196 664.279 179.528 664.363 179.89Z" fill="#FED385"/>
<path d="M713.621 211.669L712.742 224.252C712.718 224.623 712.596 224.982 712.388 225.291C712.18 225.6 711.895 225.849 711.56 226.012C711.225 226.175 710.853 226.246 710.482 226.219C710.11 226.192 709.753 226.066 709.445 225.856L699.006 218.801C698.698 218.594 698.451 218.309 698.288 217.976C698.126 217.643 698.054 217.272 698.08 216.902C698.106 216.532 698.229 216.176 698.437 215.869C698.645 215.562 698.93 215.315 699.264 215.153L710.599 209.625C710.932 209.465 711.301 209.395 711.669 209.421C712.037 209.448 712.392 209.571 712.698 209.778C713.004 209.985 713.25 210.268 713.412 210.6C713.574 210.932 713.646 211.301 713.621 211.669Z" fill="#74D5DE"/>
<path d="M596.626 143.561C625.21 141.261 646.172 111.934 643.446 78.0567C640.721 44.1797 615.339 18.5812 586.756 20.881C558.172 23.1808 537.21 52.508 539.935 86.3851C542.661 120.262 568.042 145.861 596.626 143.561Z" fill="#FD8369"/>
<path d="M597.605 138.769L604.748 149.153C604.956 149.458 605.08 149.813 605.108 150.18C605.136 150.548 605.068 150.917 604.91 151.25C604.751 151.584 604.509 151.87 604.206 152.08C603.903 152.291 603.55 152.418 603.182 152.45L590.627 153.489C590.258 153.517 589.888 153.448 589.554 153.289C589.219 153.13 588.933 152.885 588.723 152.581C588.512 152.276 588.386 151.921 588.356 151.552C588.325 151.183 588.393 150.812 588.55 150.478L593.963 139.082C594.119 138.746 594.362 138.458 594.666 138.245C594.97 138.033 595.324 137.904 595.693 137.873C596.063 137.841 596.434 137.907 596.77 138.064C597.105 138.222 597.393 138.465 597.605 138.769Z" fill="#FD8369"/>
<path fill-rule="evenodd" clip-rule="evenodd" d="M420.996 359.413L423.409 347.227C424.091 343.82 426.097 340.823 428.986 338.892C431.875 336.962 435.412 336.257 438.821 336.932L487.346 346.584C490.753 347.266 493.751 349.271 495.681 352.16C497.611 355.05 498.316 358.587 497.642 361.995L462.251 539.649C461.915 541.337 461.25 542.943 460.294 544.374C459.338 545.805 458.109 547.034 456.678 547.99C455.247 548.946 453.642 549.61 451.953 549.946C450.265 550.281 448.528 550.281 446.84 549.945L414.859 543.574C410.62 542.489 405.046 540.848 405.046 540.848L420.996 359.413Z" fill="#FD8369"/>
<path fill-rule="evenodd" clip-rule="evenodd" d="M290.283 923.198L286.382 935.44L253.815 927.96L256.574 913.312L290.283 923.198Z" fill="#E49D75"/>
<path fill-rule="evenodd" clip-rule="evenodd" d="M493.009 816.663L504.953 822.366L488.818 851.081L474.791 841.943L493.009 816.663Z" fill="#E49D75"/>
<path fill-rule="evenodd" clip-rule="evenodd" d="M419.122 515.953C419.122 515.953 386.394 688.154 376.943 711.407C389.482 721.59 493.652 816.88 493.652 816.88L475.957 842.828L325.143 756.483L356.151 498.411L419.122 515.953Z" fill="#56CAD8"/>
<path fill-rule="evenodd" clip-rule="evenodd" d="M397.928 522.452C390.238 541.652 290.372 923.463 290.372 923.463L255.423 914.246L286.149 494.035C286.149 494.035 405.609 503.253 397.928 522.452Z" fill="#FD8369"/>
<path fill-rule="evenodd" clip-rule="evenodd" d="M380.128 325.735C302.96 308.917 275.612 474.828 280.84 495.499C286.069 516.171 408.079 536.52 417.023 524.005C425.967 511.489 461.728 343.519 380.128 325.735Z" fill="#FFD98E"/>
<path fill-rule="evenodd" clip-rule="evenodd" d="M400.928 284.199C395.845 297.302 393.922 316.96 392.684 335.934C385.863 341.87 365.682 339.892 362.859 336.385C365.119 330.401 364.556 311.877 363.309 306.118C362.063 300.359 403.767 276.888 400.928 284.199Z" fill="#D18C65"/>
<path fill-rule="evenodd" clip-rule="evenodd" d="M276.014 311.378L251.555 217.311L240.615 220.15L265.075 314.258L276.014 311.378Z" fill="#DFDFDF"/>
<path d="M269.363 302.514L263.097 304.123" stroke="white" stroke-width="0.812382" stroke-linecap="square" stroke-linejoin="round"/>
<path d="M266.145 290.144L259.879 291.752" stroke="white" stroke-width="0.812382" stroke-linecap="square" stroke-linejoin="round"/>
<path d="M262.936 277.773L256.662 279.381" stroke="white" stroke-width="0.812382" stroke-linecap="square" stroke-linejoin="round"/>
<path d="M259.719 265.402L253.445 267.011" stroke="white" stroke-width="0.812382" stroke-linecap="square" stroke-linejoin="round"/>
<path d="M256.501 253.031L250.235 254.64" stroke="white" stroke-width="0.812382" stroke-linecap="square" stroke-linejoin="round"/>
<path d="M253.284 240.661L247.018 242.269" stroke="white" stroke-width="0.812382" stroke-linecap="square" stroke-linejoin="round"/>
<path d="M250.067 228.29L243.801 229.898" stroke="white" stroke-width="0.812382" stroke-linecap="square" stroke-linejoin="round"/>
<path fill-rule="evenodd" clip-rule="evenodd" d="M239.473 275.705C232.942 273.405 228.502 279.446 226.717 284.819C223.853 293.457 225.751 301.34 228.502 302.514C230.031 303.194 231.745 303.337 233.365 302.921C234.986 302.505 236.418 301.554 237.43 300.222C237.623 302.578 237.961 304.541 242.256 306.407C248.691 309.198 255.801 300.777 257.482 296.433C259.719 290.722 258.665 282.196 253.863 280.137C249.906 278.44 247.203 279.663 245.956 281.223C244.195 278.448 242.216 276.671 239.473 275.705Z" fill="#56CAD8"/>
<path fill-rule="evenodd" clip-rule="evenodd" d="M243.632 258.332C234.181 259.136 241.283 274.089 245.739 277.274C248.892 274.612 252.777 257.552 243.632 258.332Z" fill="#FD8369"/>
<path fill-rule="evenodd" clip-rule="evenodd" d="M414.143 434.82C414.819 449.032 418.607 487.142 390.086 493.738C362.955 500.019 273.778 439.565 257.764 435.962C241.75 432.359 241.484 438.053 229.861 433.694C206.946 425.087 211.362 415.644 213.171 405.952C222.872 409.105 360.808 442.952 365.465 444.174C367.452 439.762 368.527 434.993 368.626 430.155C368.626 430.155 413.468 420.607 414.143 434.82Z" fill="#E49D75"/>
<path fill-rule="evenodd" clip-rule="evenodd" d="M396.89 356.252C358.475 354.386 355.708 433.211 361.355 438.383C367.001 443.555 420.393 447.327 424.415 441.448C428.436 435.568 430.777 357.901 396.89 356.252Z" fill="#FFE4AD"/>
<path fill-rule="evenodd" clip-rule="evenodd" d="M314.719 402.445C323.808 404.73 329.624 412.741 327.709 420.334C325.795 427.927 316.883 432.262 307.786 429.937L208.707 405.003L215.625 377.511L314.719 402.445Z" fill="#FD8369"/>
<path fill-rule="evenodd" clip-rule="evenodd" d="M316.103 382.723L175.826 347.26L171 366.387L311.277 401.842L316.103 382.723Z" fill="#DFDFDF"/>
<path fill-rule="evenodd" clip-rule="evenodd" d="M319.682 349.962L218.15 324.296L210.059 356.3L311.598 381.967L319.682 349.962Z" fill="#56CAD8"/>
<path fill-rule="evenodd" clip-rule="evenodd" d="M353.979 338.38L213.678 302.916L208.852 322.068L349.129 357.523L353.979 338.38Z" fill="#FD8369"/>
<path d="M312.467 405.244L307.44 425.513" stroke="#FD8369" stroke-width="1.0939" stroke-linecap="square" stroke-linejoin="round"/>
<path fill-rule="evenodd" clip-rule="evenodd" d="M308.807 359.397L280.157 352.158L277.872 361.191L306.523 368.43L308.807 359.397Z" fill="#DFDFDF"/>
<path d="M343.901 345.86L286.069 331.052" stroke="#FFD98E" stroke-width="1.9465" stroke-linecap="round" stroke-linejoin="round"/>
<path fill-rule="evenodd" clip-rule="evenodd" d="M531.022 835.485L485.062 920.576L472.104 913.739L486.542 851L504.849 822.109L531.022 835.485Z" fill="#522667"/>
<path fill-rule="evenodd" clip-rule="evenodd" d="M282.337 963.64L187.119 946.749L189.532 932.271L253.654 926.246L286.817 934.555L282.337 963.64Z" fill="#522667"/>
<path fill-rule="evenodd" clip-rule="evenodd" d="M344.713 224.389C348.341 204.634 367.757 196.14 384.914 199.848C414.747 206.283 429.152 222.37 446.968 225.37C473.994 229.89 499.162 219.74 527.531 227.22C565.978 237.355 571.697 264.807 566.139 289.436C556.881 330.175 521.836 339.305 495.559 335.46C457.272 329.829 456.621 302.836 432.611 298.71C421.39 296.787 414.111 299.249 402.698 297.101C391.284 294.953 372.76 280.154 367.307 274.515C361.853 268.877 342.557 236.116 344.713 224.389Z" fill="black"/>
<path fill-rule="evenodd" clip-rule="evenodd" d="M405.601 268.241C409.623 244.401 398.483 223.255 380.715 221.011C362.947 218.767 345.268 236.277 341.246 260.134C337.225 283.99 348.365 305.12 366.132 307.364C383.9 309.608 401.58 292.082 405.601 268.241Z" fill="#E49D75"/>
<path fill-rule="evenodd" clip-rule="evenodd" d="M352.024 230.373C349.088 246.009 394.606 271.193 408.923 274.354C423.24 277.515 428.694 247.988 428.694 247.988C428.694 247.988 380.265 191.258 352.024 230.373Z" fill="black"/>
<path fill-rule="evenodd" clip-rule="evenodd" d="M410.347 280.709C410.349 279.017 409.848 277.363 408.909 275.955C407.97 274.548 406.635 273.451 405.073 272.803C403.51 272.155 401.79 271.985 400.131 272.314C398.471 272.644 396.947 273.458 395.751 274.655C394.555 275.851 393.74 277.375 393.411 279.034C393.081 280.694 393.251 282.414 393.899 283.976C394.547 285.539 395.644 286.874 397.052 287.813C398.459 288.752 400.113 289.252 401.805 289.251C404.07 289.251 406.243 288.351 407.845 286.749C409.447 285.147 410.347 282.974 410.347 280.709Z" fill="#E49D75"/>
<path d="M426.023 352.069C421.896 348.633 417.011 346.229 411.771 345.056" stroke="#FD8369" stroke-width="3.21735" stroke-linecap="round" stroke-linejoin="round"/>
<path d="M411.738 345.056C386.53 339.522 359.561 364.762 351.51 401.44C348.292 415.974 348.574 430.123 351.614 442.252" stroke="#FD8369" stroke-width="3.21735" stroke-linecap="round" stroke-linejoin="round"/>
<g clip-path="url(#clip1_416_504)">
<path d="M718.249 741.566L792 902.719L718.249 945V741.566Z" fill="#E2E2E2"/>
<path opacity="0.57" d="M705.751 738L632 899.153L705.751 941.434V738Z" fill="#FADB93"/>
<path d="M705.751 738L779.502 899.153L705.751 941.434V738Z" fill="#E9AB0D"/>
<path d="M761.597 909.424C759.791 906.307 758.846 902.769 758.858 899.17C758.859 895.224 760 891.362 762.142 888.042C764.285 884.723 767.34 882.086 770.944 880.446" stroke="black" stroke-width="0.41" stroke-miterlimit="10"/>
</g>
</g>
<defs>
<clipPath id="clip0_416_504">
<rect width="802" height="952" fill="white"/>
</clipPath>
<clipPath id="clip1_416_504">
<rect width="160" height="207" fill="white" transform="translate(632 738)"/>
</clipPath>
</defs>
</svg>
