<svg width="840" height="730" viewBox="0 0 840 730" fill="none" xmlns="http://www.w3.org/2000/svg">
<g clip-path="url(#clip0_406_62)">
<path d="M817.58 633.72H762.43V707.13H817.58V633.72Z" fill="#E9AB0D"/>
<path d="M784.1 660.92H770.24V674.78H784.1V660.92Z" fill="#F1426C"/>
<path d="M777.17 660.92V633.72Z" fill="#E9AB0D"/>
<path d="M777.17 660.92V633.72" stroke="#F1426C" stroke-width="2.33" stroke-miterlimit="10"/>
<path d="M816.76 689.96C827.22 689.96 835.7 681.48 835.7 671.02C835.7 660.559 827.22 652.08 816.76 652.08C806.3 652.08 797.82 660.559 797.82 671.02C797.82 681.48 806.3 689.96 816.76 689.96Z" stroke="#E9AB0D" stroke-width="6.99" stroke-miterlimit="10"/>
<path d="M500.842 2.29052L334.087 291.119L622.915 457.874L789.67 169.046L500.842 2.29052Z" stroke="#E9AB0D" stroke-width="3.49" stroke-linecap="round" stroke-linejoin="round"/>
<path d="M136.14 564C136.14 562.18 132.23 554.19 122.28 554.19C116.49 554.19 107.55 559.66 107.55 560.43C114.55 561.97 121.03 571.05 125.35 571.05C129.85 571.05 136.14 568.51 136.14 564Z" fill="#E9AB0D"/>
<path d="M435.12 455.45C435.12 464.45 427.28 496.37 392.12 496.37C360.19 496.37 279.05 358.92 276.52 353.64C268.07 352.8 253.4 341.91 249.21 327.07C248.57 324.8 258.21 311.79 268.74 314.91C271.21 315.65 260.6 302.43 259.15 300.15C255.84 294.96 257.81 287.88 259.44 287.88C261.07 287.88 282.13 316.52 283.7 316.64C285.27 316.76 297.62 322.43 298.26 323.64C298.9 324.85 298.18 342.03 300.58 345.26C302.98 348.49 385.2 436.1 385.2 436.1C385.95 427.7 394.36 404.63 395.71 402.23C397.06 399.83 435.08 429.05 435.08 455.49" fill="white"/>
<path d="M262.48 319.6C260.73 317.2 259.58 309.87 265.24 309.85C284.42 309.8 294.39 315.79 294.39 318.75C294.39 321.71 294.39 336.75 295.97 339.48C296.47 340.35 304.61 349.32 315.63 361.31C320.63 367 328.86 375.66 328.86 375.66C351.28 399.93 377.32 427.91 379.67 430.48C380.46 425.35 386.18 406.79 388.9 401.11" stroke="#F1426C" stroke-width="4.3" stroke-linecap="round" stroke-linejoin="round"/>
<path d="M335.11 445.26C305.23 406 275 354.73 271 348.4" stroke="#F1426C" stroke-width="4.3" stroke-linecap="round" stroke-linejoin="round"/>
<path d="M423.75 468.22C421.8 473.37 412.75 490.8 385.33 490.8C380.21 490.8 373.74 487.03 366.49 480.71" stroke="#F1426C" stroke-width="4.3" stroke-linecap="round" stroke-linejoin="round"/>
<path d="M454.59 262.85C452.59 251.38 443.88 227.6 443.88 206.85C443.88 175.64 463.13 157.99 499.37 157.99C524.92 157.99 535.04 174.72 538.92 182.99C542.16 189.9 540.23 197.48 543.86 204.66C558.28 233.25 570.11 230.32 591.09 265.78C596.16 274.35 599.15 304.4 597.48 313.85C588.48 314.23 576.48 318.35 576.48 318.35C572.058 322.971 569.611 329.134 569.66 335.53C565.47 332.08 543.51 314.32 518.18 314.32C511.36 314.32 478.88 320.25 470.41 326.65C468.93 324.6 462.02 320.89 459.31 320.89C454.54 321.47 450.58 321.89 446.84 323.18C442.61 308.7 454.97 289.28 454.97 266.69C454.94 265.397 454.8 264.109 454.55 262.84" fill="#E9AB0D"/>
<path d="M460.71 321.9C408.14 321.9 390.32 393.42 390.32 400.64C390.32 407.86 430.7 433 436.34 433C441.98 433 475.82 349.68 475.82 344.27C475.82 338.86 471.08 321.93 460.71 321.93" fill="#F1426C"/>
<path d="M423.75 326.31C395.21 346.25 384.75 389.53 384.75 395.06C384.75 402.28 425.13 427.4 430.75 427.4C436.37 427.4 470.23 344.08 470.23 338.66C470.23 333.24 465.5 316.33 455.12 316.33" stroke="#F1426C" stroke-width="4.3" stroke-linecap="round" stroke-linejoin="round"/>
<path d="M512.55 315.62C640.6 307.19 622.64 580.62 612.8 591.39C602.96 602.16 492.08 634.58 478.8 627.63C465.52 620.68 348.6 326.41 512.54 315.63" fill="#F1426C"/>
<path d="M531.09 258.24C531.09 258.24 529 271 528.84 275C528.34 281.69 531.17 322.29 532.19 329.23C528.19 333.68 499.28 337.77 496.04 335.23C496.09 329.65 493.25 300.84 492.16 296.84C470.5 294.04 453.52 268 453.52 236.29C453.507 229.938 454.208 223.605 455.61 217.41C462.13 215.31 471.61 205.06 473.05 201.31L471.55 197.62C477.68 217.41 514.78 235.62 528.41 237.2L526.93 239.54C528.86 235.67 532.3 233.1 536.24 233.1C542.24 233.1 547.18 239.18 547.18 246.7C547.18 254.22 542.28 260.3 536.24 260.3C534.777 260.269 533.34 259.913 532.031 259.26C530.722 258.606 529.574 257.671 528.67 256.52" fill="white"/>
<path d="M465.41 279.53C455.04 268.44 448.32 250.73 448.32 230.78C448.307 224.428 449.009 218.095 450.41 211.9" stroke="#F1426C" stroke-width="4.3" stroke-linecap="round" stroke-linejoin="round"/>
<path d="M514.66 281.15C507.86 287.74 499.66 291.59 490.83 291.59C487.032 291.584 483.268 290.872 479.73 289.49" stroke="#F1426C" stroke-width="4.3" stroke-linecap="round" stroke-linejoin="round"/>
<path d="M521.72 234C523.65 230.13 527.1 227.55 531.03 227.55C537.08 227.55 541.97 233.64 541.97 241.15C541.97 248.66 537.08 254.75 531.03 254.75C529.568 254.717 528.131 254.361 526.822 253.708C525.513 253.054 524.365 252.119 523.46 250.97" stroke="#F1426C" stroke-width="4.3" stroke-linecap="round" stroke-linejoin="round"/>
<path d="M490.83 218C502.89 225.61 516.17 230.85 523.2 231.66" stroke="#F1426C" stroke-width="4.3" stroke-linecap="round" stroke-linejoin="round"/>
<path d="M466.34 192.12C467.94 197.26 471.62 202.3 476.45 206.96" stroke="#F1426C" stroke-width="4.3" stroke-linecap="round" stroke-linejoin="round"/>
<path d="M467.85 195.81C466.43 199.55 456.93 209.81 450.41 211.9" stroke="#F1426C" stroke-width="4.3" stroke-linecap="round" stroke-linejoin="round"/>
<path d="M545.48 211.2C557 227.7 568.1 230.69 585.48 260.12C590.55 268.69 593.61 298.33 591.94 307.77" stroke="#F1426C" stroke-width="4.3" stroke-linecap="round" stroke-linejoin="round"/>
<path d="M492.19 152.33H493.79C519.34 152.33 529.47 169.07 533.35 177.33C535.17 181.2 535.35 185.33 535.81 189.4" stroke="#F1426C" stroke-width="4.3" stroke-linecap="round" stroke-linejoin="round"/>
<path d="M441.31 317.52C437.07 303.04 449.43 283.62 449.43 261.03C449.43 252.03 438.31 224.66 438.31 201.18C438.31 179.93 447.23 164.97 464.37 157.58" stroke="#F1426C" stroke-width="4.3" stroke-linecap="round" stroke-linejoin="round"/>
<path d="M524.52 293C523.86 282.38 523.41 272.46 523.64 269.44" stroke="#F1426C" stroke-width="4.3" stroke-linecap="round" stroke-linejoin="round"/>
<path d="M510.31 329C517.87 327.71 525.13 325.72 526.99 323.65C526.62 321.16 525.99 314.36 525.43 306.35" stroke="#F1426C" stroke-width="4.3" stroke-linecap="round" stroke-linejoin="round"/>
<path d="M487 291.34C488.09 295.34 490.94 324.14 490.88 329.72" stroke="#F1426C" stroke-width="4.3" stroke-linecap="round" stroke-linejoin="round"/>
<path d="M444.75 338.57C455.37 325.94 469.98 316.74 489.57 312.45" stroke="#F1426C" stroke-width="4.3" stroke-linecap="round" stroke-linejoin="round"/>
<path d="M421.83 451.88C419.02 422.08 420.17 392.98 428.24 368.95" stroke="#F1426C" stroke-width="4.3" stroke-linecap="round" stroke-linejoin="round"/>
<path d="M613.53 541.16C612.34 565.97 609.53 583.27 607.22 585.81C597.38 596.56 486.5 629 473.22 622.05C467.66 619.14 443.92 565.83 430.22 504.05" stroke="#F1426C" stroke-width="4.3" stroke-linecap="round" stroke-linejoin="round"/>
<path d="M595.79 385.41C608.53 422.41 613.24 466.94 614.01 504.67" stroke="#F1426C" stroke-width="4.3" stroke-linecap="round" stroke-linejoin="round"/>
<path d="M525.78 310.94C539.679 313.348 552.542 319.853 562.72 329.62" stroke="#F1426C" stroke-width="4.3" stroke-linecap="round" stroke-linejoin="round"/>
<path d="M483.25 228.37C483.25 231.7 481.96 234.37 480.37 234.37C478.78 234.37 477.48 231.67 477.48 228.37C477.48 225.07 478.77 222.37 480.37 222.37C481.97 222.37 483.25 225.07 483.25 228.37Z" fill="#F1426C"/>
<path d="M467.85 234.4C467.49 237.11 465.4 248.21 460.85 252.66" stroke="#F1426C" stroke-width="4.3" stroke-linecap="round" stroke-linejoin="round"/>
<path d="M476.22 267.23C478.09 267.56 485.67 265.08 487.43 259.97" stroke="#F1426C" stroke-width="4.3" stroke-linecap="round" stroke-linejoin="round"/>
<path d="M651.29 421C651.29 421 681.12 506.78 681.12 516.38C681.12 525.98 591.83 590.62 591.83 590.62L546.22 594.43L625.38 513.14L595.67 439.14L651.29 421Z" fill="white"/>
<path d="M590.09 433.53C591.8 437.84 619.81 507.53 619.81 507.53L541.94 588" stroke="#F1426C" stroke-width="4.3" stroke-linecap="round" stroke-linejoin="round"/>
<path d="M669.06 488C672.84 500.38 675.54 509.64 675.54 510.78C675.54 514.58 661.19 526.42 661.19 526.42" stroke="#F1426C" stroke-width="4.3" stroke-linecap="round" stroke-linejoin="round"/>
<path d="M645.72 413.71C645.72 413.71 650.43 428.45 656.11 446.45" stroke="#F1426C" stroke-width="4.3" stroke-linecap="round" stroke-linejoin="round"/>
<path d="M569.56 321.47C622.22 306.58 664.99 398.37 660.15 411.01C655.31 423.65 594.21 444.08 583.88 438.81C573.55 433.54 535.28 331.16 569.56 321.47Z" fill="#F1426C"/>
<path d="M590.09 433.53C584.65 434.32 580.42 434.31 578.31 433.24C575.12 431.61 569.31 420.71 563.69 406.13" stroke="#F1426C" stroke-width="4.3" stroke-linecap="round" stroke-linejoin="round"/>
<path d="M653 392.75C654.81 398.7 655.4 403.25 654.56 405.43C652.01 412.08 633.88 420.89 615.77 426.98" stroke="#F1426C" stroke-width="4.3" stroke-linecap="round" stroke-linejoin="round"/>
<path d="M550.72 355.76C548.49 336.12 551.16 319.52 563.98 315.89C593.07 307.67 619.15 332 635.84 357.56" stroke="#F1426C" stroke-width="4.3" stroke-linecap="round" stroke-linejoin="round"/>
<path d="M415.82 561.05C468.7 561.05 662.93 658.81 662.93 664.91C662.93 671.01 663.99 708.73 657.25 708.73C451.25 708.73 358.94 669.13 358.94 601.92C358.94 575.17 386.53 561.05 415.82 561.05Z" fill="black"/>
<path d="M673.73 666.5C669.61 666.5 667.24 704.5 669.73 708.73C676.85 711.5 704.89 715.68 709.08 715.68C713.27 715.68 737.7 711.5 737.7 687.68C737.7 671.77 713.05 666.54 673.7 666.54" fill="white"/>
<path d="M474 571.86C550.76 599.97 657.41 654.81 657.41 659.34C657.41 665.45 658.41 703.16 651.72 703.16C445.72 703.16 353.41 663.55 353.41 596.35C353.41 569.6 381.01 555.48 410.29 555.48C415.027 555.576 419.746 556.098 424.39 557.04" stroke="#F1426C" stroke-width="4.3" stroke-linecap="round" stroke-linejoin="round"/>
<path d="M668.15 660.92C666.71 660.92 665.48 665.6 664.6 671.84" stroke="#F1426C" stroke-width="4.3" stroke-linecap="round" stroke-linejoin="round"/>
<path d="M664.6 671.84C662.97 683.42 662.54 700.41 664.17 703.15C671.29 705.91 699.33 710.15 703.52 710.15C707.71 710.15 732.15 705.96 732.15 682.15C732.15 669.64 716.91 663.73 691.27 661.78" stroke="#F1426C" stroke-width="4.3" stroke-linecap="round" stroke-linejoin="round"/>
<path d="M259.31 286.72C257.867 285.016 256.582 283.185 255.47 281.25C254 277.66 245.89 285.05 253.54 296.34" stroke="#F1426C" stroke-width="4.3" stroke-linecap="round" stroke-linejoin="round"/>
<path d="M281 311.42C279.15 309.91 272.63 302.7 266.63 295.66" stroke="#F1426C" stroke-width="4.3" stroke-linecap="round" stroke-linejoin="round"/>
<path d="M254.25 309.34C245.93 312.52 258.11 328.07 264.25 333.64" stroke="#F1426C" stroke-width="4.3" stroke-linecap="round" stroke-linejoin="round"/>
<path d="M245.65 317.54C240.65 324.09 254.81 337.62 258.91 339.64" stroke="#F1426C" stroke-width="4.3" stroke-linecap="round" stroke-linejoin="round"/>
<path d="M693.69 523.13C721.69 523.13 737.69 551.13 737.69 567.79C737.69 662.79 464.24 708.73 457.69 708.73C451.14 708.73 443.58 672.5 443.58 669.73C443.58 666.96 634.92 523.13 693.69 523.13Z" fill="black"/>
<path d="M490.53 624.45C522.18 601.94 563.6 574.06 601.59 552.45" stroke="#F1426C" stroke-width="4.3" stroke-linecap="round" stroke-linejoin="round"/>
<path d="M611.27 662.45C537.13 689.76 455.69 703.16 452.17 703.16C445.63 703.16 438.05 666.93 438.05 664.16C438.05 663.57 446.97 656.39 461.55 645.51" stroke="#F1426C" stroke-width="4.3" stroke-linecap="round" stroke-linejoin="round"/>
<path d="M632.82 535.76C655.43 524.67 675.05 517.56 688.12 517.56C716.12 517.56 732.12 545.56 732.12 562.22C732.12 585.39 715.86 605.64 691.17 623.02" stroke="#F1426C" stroke-width="4.3" stroke-linecap="round" stroke-linejoin="round"/>
<path d="M432.42 671.73C426.77 671.73 367.54 681.73 367.54 700.19C367.54 721.33 380.31 729.91 387.43 729.91C394.55 729.91 438.28 720.29 442.26 713.59C446.24 706.89 432.42 671.73 432.42 671.73Z" fill="white"/>
<path d="M416.68 717C426.56 714.11 435.03 710.83 436.68 708.06C440.68 701.36 426.85 666.2 426.85 666.2C421.2 666.2 361.97 676.25 361.97 694.66C361.97 715.8 374.74 724.38 381.85 724.38C384.332 724.24 386.802 723.926 389.24 723.44" stroke="#F1426C" stroke-width="4.3" stroke-linecap="round" stroke-linejoin="round"/>
<path d="M239.97 697.17H51.57V724.34H239.97V697.17Z" fill="#E9AB0D"/>
<path d="M268.73 675.25H80.33V697.81H268.73V675.25Z" fill="#F1426C"/>
<path d="M247.1 652.69H58.7V675.25H247.1V652.69Z" fill="#E9AB0D"/>
<path d="M165.17 540.58C160.6 540.21 154.3 522.46 160.05 513.58C172.14 494.91 203.49 488.84 215.1 462.41C215.01 471.5 224.25 545.41 165.17 540.56" fill="#E9AB0D"/>
<path d="M145.77 605.55C145.77 573.11 170.1 521.41 185.55 510.7" stroke="#F1426C" stroke-width="2.33" stroke-linecap="round" stroke-linejoin="round"/>
<path d="M171.69 527.24C170.61 524.94 168.88 517.51 169.53 513.31" stroke="#F1426C" stroke-width="2.33" stroke-linecap="round" stroke-linejoin="round"/>
<path d="M179.83 516C181.75 516.51 190.42 515.92 195.31 514.46" stroke="#F1426C" stroke-width="2.33" stroke-linecap="round" stroke-linejoin="round"/>
<path d="M149 581.62C148.86 578.53 144.09 561.99 125.86 564.13" stroke="#F1426C" stroke-width="2.33" stroke-linecap="round" stroke-linejoin="round"/>
<path d="M131.15 564C130.5 562.57 127.87 559.66 126.5 559.23" stroke="#F1426C" stroke-width="2.33" stroke-linecap="round" stroke-linejoin="round"/>
<path d="M168.29 652.69L178 605.55H116.4L126.09 652.69H168.29Z" fill="#F1426C"/>
<path d="M2 169L116.32 457.71L299.12 254.89L2 169Z" stroke="#E9AB0D" stroke-width="3.49" stroke-linecap="round" stroke-linejoin="round"/>
<path d="M142.07 158V243.54H180.28L199 275.74L217.72 243.53H255.93V158H142.07Z" fill="#E9AB0D"/>
<path d="M182.1 199.54C182.102 200.717 181.755 201.869 181.102 202.849C180.45 203.828 179.521 204.593 178.434 205.044C177.347 205.496 176.15 205.616 174.995 205.387C173.841 205.159 172.779 204.593 171.946 203.761C171.113 202.929 170.545 201.869 170.315 200.715C170.085 199.56 170.202 198.363 170.652 197.276C171.102 196.188 171.865 195.258 172.843 194.604C173.822 193.949 174.973 193.6 176.15 193.6C176.931 193.599 177.704 193.752 178.426 194.05C179.148 194.347 179.804 194.785 180.357 195.336C180.909 195.888 181.348 196.543 181.647 197.265C181.946 197.986 182.1 198.759 182.1 199.54Z" fill="#F1426C"/>
<path d="M204.94 199.54C204.942 200.718 204.594 201.87 203.941 202.85C203.288 203.83 202.359 204.594 201.272 205.045C200.184 205.497 198.987 205.616 197.832 205.386C196.677 205.157 195.615 204.59 194.783 203.757C193.95 202.925 193.383 201.864 193.154 200.709C192.925 199.553 193.043 198.356 193.495 197.269C193.946 196.181 194.711 195.252 195.691 194.599C196.671 193.946 197.822 193.598 199 193.6C199.781 193.599 200.554 193.752 201.276 194.05C201.998 194.347 202.654 194.785 203.207 195.336C203.759 195.888 204.198 196.543 204.497 197.265C204.796 197.986 204.95 198.759 204.95 199.54" fill="#F1426C"/>
<path d="M227.78 199.54C227.78 200.715 227.432 201.863 226.779 202.84C226.126 203.817 225.199 204.578 224.113 205.028C223.028 205.478 221.833 205.595 220.681 205.366C219.529 205.137 218.47 204.571 217.64 203.74C216.809 202.91 216.243 201.851 216.014 200.699C215.785 199.547 215.903 198.352 216.352 197.267C216.802 196.182 217.563 195.254 218.54 194.601C219.517 193.949 220.665 193.6 221.84 193.6C223.415 193.6 224.926 194.226 226.04 195.34C227.154 196.454 227.78 197.965 227.78 199.54Z" fill="#F1426C"/>
</g>
<defs>
<clipPath id="clip0_406_62">
<rect width="840" height="730" fill="white"/>
</clipPath>
</defs>
</svg>
