<svg width="888" height="946" viewBox="0 0 888 946" fill="none" xmlns="http://www.w3.org/2000/svg">
<g clip-path="url(#clip0_405_3)">
<path d="M134.47 35C40.86 108.26 75.7 404.94 267.63 442.37C492.4 486.2 507.59 256.72 678 277.3C826.19 295.21 870.67 455.45 778.91 555.93" stroke="white" stroke-width="6" stroke-linecap="round" stroke-linejoin="round" stroke-dasharray="36 36"/>
<path d="M339.29 452.08C328.29 447.87 273.37 403.56 269.09 396.57C264.81 389.58 236.39 345.15 236.39 345.15L284.23 308.67C284.23 308.67 327.33 347.41 335.72 355.21C344.11 363.01 376.53 375.46 380.05 375.45C383.57 375.44 339.29 452.08 339.29 452.08Z" fill="white"/>
<path d="M326.68 439.47C320.12 435.69 267.3 391.77 262.09 386.57C256.88 381.37 236.09 348.27 232.75 340.36" stroke="#1B3C87" stroke-width="5.43" stroke-linecap="round" stroke-linejoin="round"/>
<path d="M688 747.31C676.74 752.31 474.83 798.62 439.8 799.04C447.87 844.22 477.85 932.61 479.95 941.58C497.88 937.23 716.27 855.08 724.36 849.69C717.65 836.76 691.71 773.59 688 747.31Z" fill="#3B3744"/>
<path d="M452.255 39.021L71.4636 244.914C32.2485 266.118 17.6462 315.095 38.8484 354.307C60.0506 393.52 109.029 408.119 148.244 386.916L529.035 181.023C568.25 159.819 582.852 110.842 561.65 71.6295C540.448 32.4168 491.47 17.8175 452.255 39.021Z" fill="#D7E0FF"/>
<path d="M274.29 257L233.22 243.82L246.41 202.74" stroke="white" stroke-width="5.3" stroke-linecap="round" stroke-linejoin="round"/>
<path d="M342.68 153.26L383.75 166.45L370.57 207.52" stroke="white" stroke-width="5.3" stroke-linecap="round" stroke-linejoin="round"/>
<path d="M284.71 149.5L314.25 271.66" stroke="white" stroke-width="5.3" stroke-linecap="round" stroke-linejoin="round"/>
<path d="M248 153.84C240.33 137.15 192.43 154.76 172 171.75C177.68 190.42 183.45 206.85 186.74 210.58C190.77 211 250.52 180.76 248 153.84Z" fill="white"/>
<path d="M465.36 407.46C436.84 384.46 397.55 369.06 386.19 364.37C377.93 367.94 367.31 386.8 357.95 408.2C341.21 439.63 335.95 477.83 335.95 477.83C361.87 493.94 415.64 504.23 425.12 504.23C434.6 504.23 465.36 407.46 465.36 407.46Z" fill="#E9AB0D"/>
<path d="M518.07 383.32C618.35 359.27 664.18 646.49 685.96 746.32C664.63 762.2 475.42 809.84 437.76 798C368.34 615.18 344.25 425 518.07 383.32Z" fill="#E9AB0D"/>
<path d="M510.07 373.32C610.35 349.27 656.18 636.49 677.96 736.32C656.63 752.2 467.42 799.84 429.76 788C360.34 605.18 336.25 415 510.07 373.32Z" stroke="#1B3C87" stroke-width="5.3" stroke-linecap="round" stroke-linejoin="round"/>
<path d="M572.06 562.66C566.8 570.27 518.79 624.42 511.18 628.22C503.57 632.02 473.38 631.53 467.57 628.22C433.62 608.9 324.15 438.84 316.24 422.74C308.33 406.64 296.93 383.82 286.68 375.33C285.03 362.84 293.98 346.49 278.09 326.71C281.01 312.77 272.9 251.17 319.09 275.97C331.25 282.62 347.97 308.69 345.66 330.16C343.35 351.63 340.56 376.02 345.18 386.04C349.8 396.06 475.28 529.63 478.52 531.25C482.52 526.02 498.45 505.13 498.45 505.13L572.06 562.66Z" fill="white"/>
<path d="M619.13 419.68C667.65 458.14 608.64 547.3 586.79 571.77C576.79 572.21 489.93 521.07 485.48 500.09C498.07 481.3 565.06 376.81 619.13 419.68Z" fill="#E9AB0D"/>
<path d="M351 476.7C343.384 473.68 336.026 470.044 329 465.83C328.41 463.44 329.32 458.09 332.25 448.03" stroke="#1B3C87" stroke-width="5.43" stroke-linecap="round" stroke-linejoin="round"/>
<path d="M351.86 394.13C361.22 372.73 370.93 355.94 379.19 352.37C390.55 357.06 428.03 371.06 456.55 394.02" stroke="#1B3C87" stroke-width="5.3" stroke-linecap="round" stroke-linejoin="round"/>
<path d="M417.42 465.12C383.33 430.48 344.62 389.35 338.19 374.04C333.9 365.04 336.93 305.94 345.07 293.27" stroke="#1B3C87" stroke-width="5.43" stroke-linecap="round" stroke-linejoin="round"/>
<path d="M485.56 501.36C480.32 506.88 475.67 514 471.56 519.25C470.38 517.89 463.63 511.25 453.72 501.43" stroke="#1B3C87" stroke-width="5.43" stroke-linecap="round" stroke-linejoin="round"/>
<path d="M513.36 608.35C509.11 612.5 505.8 615.41 504.18 616.22C496.57 620.03 466.38 619.53 460.57 616.22C426.62 596.9 317.15 426.84 309.24 410.74C301.33 394.64 289.93 371.82 279.68 363.33" stroke="#1B3C87" stroke-width="5.43" stroke-linecap="round" stroke-linejoin="round"/>
<path d="M562 554.57C560.33 556.98 554.69 563.65 547.52 571.77" stroke="#1B3C87" stroke-width="5.43" stroke-linecap="round" stroke-linejoin="round"/>
<path d="M325.72 321.09C324.72 304.09 314.64 267.92 307.01 260.09" stroke="#1B3C87" stroke-width="5.43" stroke-linecap="round" stroke-linejoin="round"/>
<path d="M308.49 321.09C305.78 310.02 294.95 275.31 283.87 258.09" stroke="#1B3C87" stroke-width="5.43" stroke-linecap="round" stroke-linejoin="round"/>
<path d="M293.72 329.46C293.23 323.56 283.87 298.69 277.23 291.8" stroke="#1B3C87" stroke-width="5.43" stroke-linecap="round" stroke-linejoin="round"/>
<path d="M282.39 341.52C281.16 335.37 273.53 318.88 267.63 313.22" stroke="#1B3C87" stroke-width="5.43" stroke-linecap="round" stroke-linejoin="round"/>
<path d="M714.32 838.69C709.32 827.86 682.73 759.05 677.96 736.31" stroke="#1B3C87" stroke-width="5.3" stroke-linecap="round" stroke-linejoin="round"/>
<path d="M577.26 887.27C569.26 880.77 537.97 840.27 524.67 821.99" stroke="#1B3C87" stroke-width="5.3" stroke-linecap="round" stroke-linejoin="round"/>
<path d="M469.91 930.58C465.27 920.37 433.86 813.19 429.76 788.04" stroke="#1B3C87" stroke-width="5.3" stroke-linecap="round" stroke-linejoin="round"/>
<path d="M366.85 365.45C358.67 361.83 342.03 353.55 336.24 352.37" stroke="#1B3C87" stroke-width="5.43" stroke-linecap="round" stroke-linejoin="round"/>
<path d="M162.2 379.36L227.03 432.45L218.1 349.13" fill="#D7E0FF"/>
<path d="M235.5 140.1C231.56 135.93 196.71 121.03 223.67 181.1" stroke="#1B3C87" stroke-width="5.43" stroke-linecap="round" stroke-linejoin="round"/>
<path d="M210.4 148.58C206.4 144.41 171.61 129.51 198.56 189.58" stroke="#1B3C87" stroke-width="5.43" stroke-linecap="round" stroke-linejoin="round"/>
<path d="M181.1 162.58C177.28 159.07 147.63 149.58 179.68 204.58" stroke="#1B3C87" stroke-width="5.43" stroke-linecap="round" stroke-linejoin="round"/>
<path d="M521.09 530C499.8 515.6 480.52 499.69 478.48 490.08" stroke="#1B3C87" stroke-width="5.3" stroke-linecap="round" stroke-linejoin="round"/>
<path d="M626.55 478.33C616.73 512.92 592.24 547.83 579.79 561.77C575.72 561.95 559.04 553.65 540.34 542.33" stroke="#1B3C87" stroke-width="5.3" stroke-linecap="round" stroke-linejoin="round"/>
<path d="M504.17 454.48C531.68 420.38 574.96 380.2 612.17 409.68C613.653 410.849 615.069 412.101 616.41 413.43" stroke="#1B3C87" stroke-width="5.3" stroke-linecap="round" stroke-linejoin="round"/>
<path d="M751.93 54.38L656.14 150.73L885.18 203.73L751.93 54.38Z" stroke="#B6C6FC" stroke-width="3.95" stroke-linecap="round" stroke-linejoin="round"/>
<path d="M136.615 709.093L121.618 859.346L292.409 876.394L307.407 726.14L136.615 709.093Z" stroke="#B6C6FC" stroke-width="3.95" stroke-linecap="round" stroke-linejoin="round"/>
<path d="M108.48 943.95C154.32 943.95 191.48 906.79 191.48 860.95C191.48 815.11 154.32 777.95 108.48 777.95C62.6403 777.95 25.48 815.11 25.48 860.95C25.48 906.79 62.6403 943.95 108.48 943.95Z" stroke="#B6C6FC" stroke-width="3.95" stroke-linecap="round" stroke-linejoin="round"/>
<path d="M572.17 117.66C567.85 102.04 549.59 98.72 540.38 131.66C536.38 120.12 528.03 103.72 519.32 103.72C513.88 103.72 506.32 109.34 500.49 119.58" stroke="#1B3C87" stroke-width="5.43" stroke-linecap="round" stroke-linejoin="round"/>
<path d="M566.58 314.07C562.35 328.24 548.4 375.18 547.97 407.74C541.21 411.74 495.74 413.45 483.48 404.36C486.86 389.98 492.57 349.17 491.09 335C497.44 333.74 566.58 314.07 566.58 314.07Z" fill="white"/>
<path d="M484.43 358.91C485.9 346.07 486.78 333.63 486.09 327C492.44 325.74 561.58 306.07 561.58 306.07C557.35 320.24 543.4 367.18 542.97 399.74C538.83 402.2 520.17 403.79 503.51 402.57" stroke="#1B3C87" stroke-width="5.3" stroke-linecap="round" stroke-linejoin="round"/>
<path d="M585.595 277.218C595.171 232.666 574.678 190.477 539.824 182.986C504.97 175.495 468.953 205.538 459.378 250.09C449.802 294.642 470.294 336.831 505.148 344.322C540.002 351.813 576.02 321.769 585.595 277.218Z" fill="white"/>
<path d="M520 337.53C513.107 338.888 506.01 338.83 499.14 337.36C481.44 333.56 467.44 320.8 459.21 303.36" stroke="#1B3C87" stroke-width="5.43" stroke-linecap="round" stroke-linejoin="round"/>
<path d="M452.07 279.15C450.368 267.166 450.822 254.974 453.41 243.15C463 198.57 499 168.53 533.86 176C568.72 183.47 589.2 225.69 579.62 270.24C577.628 279.603 574.343 288.643 569.86 297.1" stroke="#1B3C87" stroke-width="5.43" stroke-linecap="round" stroke-linejoin="round"/>
<path d="M587.18 284C588.46 279.69 601.46 255.12 600.18 216C599.35 190.26 579.01 139.71 579.06 133C579.23 111.69 556.88 102 546.35 139.63C542.35 128.09 534 111.69 525.29 111.69C516.58 111.69 502.41 126.07 498.76 150.77C497.55 142.87 490.46 133.77 486.41 133.77C482.36 133.77 472.64 134.38 473.05 167.99C469.81 163.94 462.72 161.51 459.05 161.51C451.53 161.51 440.98 197.62 470.95 220.96C472.63 217.78 477.34 211.06 477.62 211.06C483.13 212.55 536.41 225.84 568.75 230.29C567.94 235.14 556.83 285.88 569.16 301.24C573.194 299.771 576.878 297.48 579.98 294.512C583.082 291.544 585.534 287.965 587.18 284Z" fill="#FB5D64"/>
<path d="M492.4 255.42C491.03 260.92 482.7 270.02 478.48 271.66" stroke="#1B3C87" stroke-width="5.43" stroke-linecap="round" stroke-linejoin="round"/>
<path d="M531.563 253.395C532.884 249.804 532.229 246.256 530.099 245.473C527.968 244.689 525.17 246.965 523.848 250.557C522.527 254.149 523.182 257.696 525.313 258.48C527.443 259.264 530.241 256.987 531.563 253.395Z" fill="#1B3C87"/>
<path d="M515.81 297.12C514.2 300.67 504.52 308.89 499.36 309.53" stroke="#1B3C87" stroke-width="5.43" stroke-linecap="round" stroke-linejoin="round"/>
<path d="M562.8 222.32C560.589 233.258 558.967 244.308 557.94 255.42" stroke="#1B3C87" stroke-width="5.43" stroke-linecap="round" stroke-linejoin="round"/>
<path d="M492.79 142.81C491.58 134.91 484.49 125.81 480.44 125.81C476.39 125.81 466.67 126.42 467.08 160.03C463.84 155.98 456.75 153.55 453.08 153.55C445.56 153.55 435.01 189.66 464.98 213C466.66 209.82 471.37 203.1 471.65 203.1C476.18 204.33 513.05 213.54 543.99 219.25" stroke="#1B3C87" stroke-width="5.43" stroke-linecap="round" stroke-linejoin="round"/>
<path d="M585.52 264.78C591.988 246.575 594.937 227.306 594.21 208C593.74 193.62 587.21 171.49 581.5 153.6" stroke="#1B3C87" stroke-width="5.43" stroke-linecap="round" stroke-linejoin="round"/>
<path d="M572.76 309.54C581.873 309.54 589.26 302.153 589.26 293.04C589.26 283.927 581.873 276.54 572.76 276.54C563.647 276.54 556.26 283.927 556.26 293.04C556.26 302.153 563.647 309.54 572.76 309.54Z" fill="white"/>
<path d="M564.86 272.5C567.391 271.658 570.089 271.442 572.723 271.871C575.356 272.3 577.846 273.361 579.979 274.963C582.112 276.565 583.825 278.661 584.971 281.07C586.117 283.48 586.661 286.131 586.557 288.797C586.454 291.463 585.705 294.064 584.376 296.377C583.046 298.69 581.176 300.647 578.925 302.079C576.673 303.51 574.109 304.375 571.45 304.598C568.791 304.821 566.118 304.396 563.66 303.36" stroke="#1B3C87" stroke-width="5.43" stroke-linecap="round" stroke-linejoin="round"/>
</g>
<defs>
<clipPath id="clip0_405_3">
<rect width="887.542" height="945.371" fill="white" transform="translate(0.458405 0.628662)"/>
</clipPath>
</defs>
</svg>
